<svg width="166" height="163" viewBox="0 0 166 163" fill="none" xmlns="http://www.w3.org/2000/svg">
<path d="M85.9776 45.3424C91.4818 33.9685 99.9901 26.7043 110.979 26.7043C118.923 26.7043 125.953 30.7873 131.092 37.4212C136.248 44.0786 139.368 53.163 139.368 62.6497C139.368 82.9538 125.412 100.764 110.657 113.837C102.396 121.098 93.4436 127.514 83.9317 132.992L82.9569 133.541C73.0892 128.234 63.8223 121.856 55.3198 114.521C40.6109 101.729 26.6316 83.9125 26.6316 62.653C26.6316 53.1664 29.7517 44.0786 34.9078 37.4212C40.0473 30.7873 47.0767 26.7043 55.0214 26.7043C66.0099 26.7043 74.5182 33.9685 80.0224 45.3491M82.9569 141L81.5543 140.343L81.5411 140.336L81.5013 140.316L81.3587 140.246L80.8282 139.978C80.3706 139.743 79.7074 139.394 78.8685 138.938C68.9309 133.502 59.5883 127.021 50.996 119.603C35.8627 106.439 20 86.9194 20 62.653C20 51.7484 23.5711 41.1857 29.6854 33.288C35.8196 25.3735 44.6429 20 55.0214 20C67.3495 20 76.7066 27.063 83 37.0223C89.2967 27.0664 98.6505 20 110.979 20C121.357 20 130.18 25.3735 136.311 33.2914C142.432 41.1857 146 51.7451 146 62.6564C146 85.9976 130.111 105.521 115.027 118.879C105.859 126.933 95.8752 133.985 85.2415 139.917C85.0663 140.013 84.8905 140.108 84.7143 140.202L84.5717 140.279L84.5352 140.299L84.5186 140.306L82.9569 141Z" stroke="#C9782D" stroke-width="39"/>
</svg>
