<svg width="30" height="32" viewBox="0 0 30 32" fill="none" xmlns="http://www.w3.org/2000/svg">
<path d="M28.8 0.505371H1.2C0.53625 0.505371 0 1.05852 0 1.74318V30.2128C0 30.8975 0.53625 31.4506 1.2 31.4506H28.8C29.4638 31.4506 30 30.8975 30 30.2128V1.74318C30 1.05852 29.4638 0.505371 28.8 0.505371ZM25.335 9.53751H22.9388C21.06 9.53751 20.6963 10.4581 20.6963 11.812V14.7943H25.1813L24.5963 19.4632H20.6963V31.4506H16.02V19.4671H12.1088V14.7943H16.02V11.3517C16.02 7.35587 18.3863 5.1781 21.8438 5.1781C23.5013 5.1781 24.9225 5.30575 25.3388 5.36377V9.53751H25.335Z" fill="white"/>
</svg>
