<svg width="39" height="31" viewBox="0 0 39 31" fill="none" xmlns="http://www.w3.org/2000/svg">
<path d="M37.2515 0H1.96579C1.21512 0 0.608643 0.629687 0.608643 1.40909V29.5909C0.608643 30.3703 1.21512 31 1.96579 31H37.2515C38.0022 31 38.6086 30.3703 38.6086 29.5909V1.40909C38.6086 0.629687 38.0022 0 37.2515 0ZM33.8247 4.79531L20.4441 15.6057C20.1133 15.8743 19.6511 15.8743 19.3202 15.6057L5.93543 4.79531C5.88497 4.75488 5.84796 4.69908 5.82959 4.63571C5.81122 4.57235 5.8124 4.5046 5.83298 4.44197C5.85355 4.37934 5.89249 4.32496 5.94432 4.28646C5.99616 4.24796 6.0583 4.22726 6.12204 4.22727H33.6381C33.7018 4.22726 33.764 4.24796 33.8158 4.28646C33.8677 4.32496 33.9066 4.37934 33.9272 4.44197C33.9477 4.5046 33.9489 4.57235 33.9305 4.63571C33.9122 4.69908 33.8752 4.75488 33.8247 4.79531Z" fill="white"/>
</svg>
