<svg width="37" height="36" viewBox="0 0 37 36" fill="none" xmlns="http://www.w3.org/2000/svg">
<path fill-rule="evenodd" clip-rule="evenodd" d="M26.8758 21.5731C26.4229 21.3496 24.2024 20.2726 23.789 20.1226C23.3756 19.9741 23.0746 19.9006 22.7722 20.3476C22.4712 20.7916 21.6064 21.7966 21.3435 22.0936C21.079 22.3921 20.8161 22.4281 20.3647 22.2061C19.9133 21.9811 18.4573 21.5116 16.7322 19.9936C15.3901 18.8116 14.4828 17.3521 14.2198 16.9051C13.9569 16.4596 14.191 16.2181 14.4174 15.9961C14.6211 15.7966 14.8688 15.4756 15.0953 15.2161C15.3218 14.9551 15.3962 14.7691 15.5467 14.4706C15.6987 14.1736 15.6227 13.9141 15.5087 13.6906C15.3962 13.4671 14.4934 11.2726 14.1165 10.3801C13.7502 9.51156 13.3778 9.63006 13.1012 9.61506C12.8368 9.60306 12.5358 9.60006 12.2349 9.60006C11.934 9.60006 11.4446 9.71106 11.0311 10.1581C10.6162 10.6036 9.45048 11.6821 9.45048 13.8766C9.45048 16.0696 11.0676 18.1891 11.2941 18.4876C11.5205 18.7846 14.4782 23.2876 19.009 25.2181C20.0881 25.6771 20.9286 25.9516 21.5836 26.1556C22.6658 26.4961 23.6507 26.4481 24.4288 26.3326C25.2952 26.2051 27.1008 25.2541 27.4777 24.2131C27.8531 23.1721 27.8531 22.2796 27.7406 22.0936C27.6282 21.9076 27.3272 21.7966 26.8743 21.5731H26.8758ZM18.6351 32.6776H18.629C15.938 32.678 13.2963 31.9641 10.981 30.6106L10.4338 30.2896L4.74647 31.7626L6.26482 26.2906L5.90765 25.7296C4.40319 23.3661 3.60701 20.6307 3.61112 17.8396C3.61416 9.66456 10.3533 3.01356 18.6412 3.01356C22.6536 3.01356 26.426 4.55856 29.262 7.36056C30.6609 8.73543 31.7696 10.3704 32.5241 12.1709C33.2786 13.9714 33.6638 15.9017 33.6575 17.8501C33.6545 26.0251 26.9154 32.6776 18.6351 32.6776ZM31.4203 5.23206C29.7457 3.56845 27.7532 2.24937 25.5582 1.35126C23.3633 0.453157 21.0096 -0.00611437 18.6336 6.14663e-05C8.6723 6.14663e-05 0.562254 8.00256 0.559214 17.8381C0.554598 20.9682 1.38659 24.0441 2.97125 26.7556L0.407227 36.0001L9.98851 33.5191C12.639 34.9442 15.6092 35.691 18.6275 35.6911H18.6351C28.5963 35.6911 36.7064 27.6886 36.7094 17.8516C36.7168 15.5075 36.2531 13.1852 35.3452 11.0191C34.4374 8.85301 33.1033 6.88607 31.4203 5.23206Z" fill="white"/>
</svg>
