<svg width="30" height="32" viewBox="0 0 30 32" fill="none" xmlns="http://www.w3.org/2000/svg">
<path fill-rule="evenodd" clip-rule="evenodd" d="M8.81591 0.400453C10.4155 0.324496 10.9255 0.307617 15 0.307617C19.0745 0.307617 19.5845 0.325903 21.1827 0.400453C22.7809 0.475003 23.8718 0.738037 24.8264 1.11923C25.8259 1.50886 26.7327 2.11791 27.4827 2.90561C28.2464 3.67784 28.8355 4.61182 29.2118 5.64427C29.5827 6.62889 29.8364 7.75417 29.91 9.39989C29.9836 11.0526 30 11.5787 30 15.7802C30 19.9832 29.9823 20.5092 29.91 22.1592C29.8377 23.8049 29.5827 24.9302 29.2118 25.9148C28.8354 26.9474 28.2454 27.8829 27.4827 28.6563C26.7327 29.444 25.8259 30.0516 24.8264 30.4398C23.8718 30.8224 22.7809 31.0841 21.1855 31.16C19.5845 31.236 19.0745 31.2529 15 31.2529C10.9255 31.2529 10.4155 31.2346 8.81591 31.16C7.22045 31.0855 6.12955 30.8224 5.175 30.4398C4.17398 30.0516 3.26703 29.4429 2.51727 28.6563C1.75415 27.8836 1.16361 26.9485 0.786818 25.9162C0.417273 24.9316 0.163636 23.8063 0.09 22.1606C0.0163636 20.5078 0 19.9818 0 15.7802C0 11.5773 0.0177273 11.0512 0.09 9.40271C0.162273 7.75417 0.417273 6.62889 0.786818 5.64427C1.16417 4.61193 1.75516 3.67687 2.51864 2.9042C3.26733 2.11721 4.17337 1.50807 5.17364 1.11923C6.12818 0.738037 7.21909 0.476409 8.81455 0.400453H8.81591ZM21.0614 3.18552C19.4795 3.11097 19.005 3.0955 15 3.0955C10.995 3.0955 10.5205 3.11097 8.93864 3.18552C7.47545 3.25445 6.68182 3.50623 6.15273 3.71863C5.45318 3.99995 4.95273 4.33331 4.42773 4.87485C3.93006 5.37427 3.54706 5.98225 3.30682 6.65421C3.10091 7.19997 2.85682 8.01861 2.79 9.52789C2.71773 11.1596 2.70273 11.649 2.70273 15.7802C2.70273 19.9114 2.71773 20.4009 2.79 22.0326C2.85682 23.5419 3.10091 24.3605 3.30682 24.9063C3.54682 25.5772 3.93 26.1863 4.42773 26.6856C4.91182 27.199 5.50227 27.5943 6.15273 27.8419C6.68182 28.0542 7.47545 28.306 8.93864 28.375C10.5205 28.4495 10.9936 28.465 15 28.465C19.0064 28.465 19.4795 28.4495 21.0614 28.375C22.5245 28.306 23.3182 28.0542 23.8473 27.8419C24.5468 27.5605 25.0473 27.2272 25.5723 26.6856C26.07 26.1863 26.4532 25.5772 26.6932 24.9063C26.8991 24.3605 27.1432 23.5419 27.21 22.0326C27.2823 20.4009 27.2973 19.9114 27.2973 15.7802C27.2973 11.649 27.2823 11.1596 27.21 9.52789C27.1432 8.01861 26.8991 7.19997 26.6932 6.65421C26.4205 5.93262 26.0973 5.4164 25.5723 4.87485C25.0881 4.36154 24.4987 3.96649 23.8473 3.71863C23.3182 3.50623 22.5245 3.25445 21.0614 3.18552ZM13.0841 20.55C14.1541 21.0095 15.3455 21.0715 16.4549 20.7255C17.5643 20.3794 18.5228 19.6469 19.1667 18.6529C19.8107 17.6589 20.1001 16.4651 19.9855 15.2754C19.871 14.0858 19.3596 12.974 18.5386 12.1301C18.0153 11.5906 17.3826 11.1776 16.6859 10.9206C15.9893 10.6637 15.246 10.5693 14.5098 10.6442C13.7735 10.7191 13.0625 10.9615 12.4279 11.3538C11.7933 11.7462 11.251 12.2788 10.84 12.9134C10.4289 13.5479 10.1593 14.2685 10.0507 15.0234C9.94206 15.7783 9.99702 16.5487 10.2116 17.279C10.4263 18.0093 10.7952 18.6815 11.2919 19.2471C11.7886 19.8127 12.4007 20.2577 13.0841 20.55ZM9.54818 10.1566C10.2641 9.41814 11.1141 8.83233 12.0495 8.43266C12.9849 8.03298 13.9875 7.82727 15 7.82727C16.0125 7.82727 17.0151 8.03298 17.9505 8.43266C18.8859 8.83233 19.7359 9.41814 20.4518 10.1566C21.1678 10.8951 21.7357 11.7719 22.1231 12.7368C22.5106 13.7017 22.71 14.7358 22.71 15.7802C22.71 16.8246 22.5106 17.8588 22.1231 18.8237C21.7357 19.7886 21.1678 20.6653 20.4518 21.4038C19.0059 22.8953 17.0448 23.7332 15 23.7332C12.9552 23.7332 10.9941 22.8953 9.54818 21.4038C8.10227 19.9124 7.28997 17.8895 7.28997 15.7802C7.28997 13.671 8.10227 11.6481 9.54818 10.1566ZM24.42 9.01167C24.5974 8.83904 24.7394 8.63144 24.8377 8.40117C24.9359 8.1709 24.9884 7.92263 24.9919 7.67108C24.9955 7.41952 24.9501 7.16979 24.8584 6.93666C24.7667 6.70354 24.6306 6.49176 24.4581 6.31386C24.2857 6.13597 24.0804 5.99557 23.8544 5.90099C23.6283 5.80642 23.3862 5.75957 23.1424 5.76324C22.8985 5.76691 22.6578 5.82101 22.4346 5.92234C22.2113 6.02368 22.0101 6.17019 21.8427 6.35319C21.5172 6.7091 21.339 7.18185 21.346 7.67108C21.3529 8.16031 21.5444 8.6275 21.8798 8.97347C22.2152 9.31944 22.6681 9.51696 23.1424 9.52409C23.6167 9.53123 24.075 9.34741 24.42 9.01167Z" fill="white"/>
</svg>
