<svg width="28" height="35" viewBox="0 0 28 35" fill="none" xmlns="http://www.w3.org/2000/svg">
<path d="M24.514 7.70654C24.2959 7.5877 24.0836 7.45744 23.8779 7.31625C23.2801 6.89983 22.7321 6.40921 22.2454 5.85495C21.0265 4.38608 20.5713 2.89603 20.4048 1.85376H20.4105C20.2713 0.986959 20.3287 0.427246 20.3387 0.427246H14.7895V23.0321C14.7895 23.3346 14.7895 23.6357 14.778 23.9322C14.778 23.9685 14.7737 24.0017 14.7723 24.0426C14.7723 24.0577 14.7723 24.0759 14.768 24.0925V24.1061C14.7097 24.917 14.4632 25.7003 14.0501 26.3872C13.637 27.0741 13.07 27.6435 12.3989 28.0453C11.6989 28.4649 10.9071 28.6849 10.1017 28.6837C7.51733 28.6837 5.42111 26.463 5.42111 23.7204C5.42111 20.9763 7.51733 18.7556 10.1017 18.7556C10.5913 18.7556 11.078 18.8373 11.5432 18.9976L11.5504 13.0435C10.1376 12.8514 8.70241 12.9701 7.33533 13.3918C5.96826 13.8136 4.69902 14.5295 3.60774 15.4941C2.65131 16.3693 1.84718 17.4136 1.23154 18.5801C0.997513 19.0052 0.11308 20.7161 0.00683331 23.4904C-0.0606478 25.0637 0.388747 26.6974 0.602677 27.3706V27.3857C0.736203 27.7821 1.25882 29.1375 2.1088 30.2796C2.79423 31.1963 3.60408 32.0017 4.51227 32.6697V32.6546L4.52519 32.6697C7.21008 34.5909 10.1893 34.4653 10.1893 34.4653C10.7047 34.4426 12.432 34.4653 14.3932 33.4866C16.5684 32.4005 17.806 30.7833 17.806 30.7833C18.5973 29.8169 19.2266 28.7155 19.6668 27.5264C20.1693 26.1347 20.3359 24.4677 20.3359 23.8021V11.8076C20.4033 11.8499 21.3007 12.4747 21.3007 12.4747C21.3007 12.4747 22.5929 13.3475 24.6073 13.9148C26.0517 14.3187 28 14.4049 28 14.4049V8.60056C27.318 8.67922 25.9325 8.45232 24.5125 7.70805L24.514 7.70654Z" fill="white"/>
</svg>
