<svg width="172" height="142" viewBox="0 0 172 142" fill="none" xmlns="http://www.w3.org/2000/svg">
<path d="M167.073 21.5302L132.666 0.226633H132.596L132.387 0.0755434H131.969C131.969 -1.16229e-06 131.9 0 131.83 0H108.288C107.18 0 106.117 0.477548 105.333 1.32759C104.549 2.17763 104.109 3.33053 104.109 4.53267C104.109 9.74195 102.201 14.7379 98.8051 18.4214C95.409 22.1049 90.8028 24.1743 86 24.1743C81.1972 24.1743 76.591 22.1049 73.1949 18.4214C69.7988 14.7379 67.8909 9.74195 67.8909 4.53267C67.8909 3.33053 67.4506 2.17763 66.6668 1.32759C65.8831 0.477548 64.8202 0 63.7118 0H40.1699C40.1003 0 40.0306 -1.16229e-06 40.0306 0.0755434H39.6127L39.4038 0.226633H39.3341L4.92675 21.5302C2.75759 22.8825 1.14608 25.0818 0.421207 27.6791C-0.303661 30.2764 -0.0872293 33.0759 1.02632 35.506L13.842 63.3064C14.6545 65.0551 15.8986 66.5249 17.4358 67.5519C18.973 68.579 20.7429 69.123 22.5483 69.1233H37.2446V131.07C37.2446 133.875 38.272 136.565 40.1006 138.548C41.9293 140.532 44.4095 141.646 46.9957 141.646H125.004C127.59 141.646 130.071 140.532 131.899 138.548C133.728 136.565 134.755 133.875 134.755 131.07V69.1233H149.452C151.257 69.123 153.027 68.579 154.564 67.5519C156.101 66.5249 157.346 65.0551 158.158 63.3064L170.974 35.506C172.087 33.0759 172.304 30.2764 171.579 27.6791C170.854 25.0818 169.242 22.8825 167.073 21.5302ZM22.5483 60.0579C22.2969 60.0642 22.0495 59.9883 21.8384 59.8402C21.6272 59.692 21.462 59.4783 21.3643 59.227L8.54858 31.4265C8.46132 31.263 8.40471 31.0823 8.38199 30.8949C8.35928 30.7075 8.3709 30.5171 8.4162 30.3346C8.4615 30.1521 8.53959 29.9811 8.64597 29.8315C8.75235 29.6818 8.88495 29.5563 9.03613 29.4624L37.2446 11.936V60.0579H22.5483ZM126.397 131.07C126.397 131.471 126.251 131.855 125.989 132.138C125.728 132.422 125.374 132.581 125.004 132.581H46.9957C46.6262 132.581 46.2719 132.422 46.0107 132.138C45.7494 131.855 45.6027 131.471 45.6027 131.07V8.68763H59.881C60.8961 15.407 64.0801 21.5163 68.8645 25.9245C73.649 30.3328 79.7223 32.753 86 32.753C92.2777 32.753 98.351 30.3328 103.135 25.9245C107.92 21.5163 111.104 15.407 112.119 8.68763H126.397V131.07ZM163.451 31.4265L150.636 59.227C150.538 59.4783 150.373 59.692 150.162 59.8402C149.95 59.9883 149.703 60.0642 149.452 60.0579H134.755V11.936L162.964 29.4624C163.115 29.5563 163.248 29.6818 163.354 29.8315C163.46 29.9811 163.538 30.1521 163.584 30.3346C163.629 30.5171 163.641 30.7075 163.618 30.8949C163.595 31.0823 163.539 31.263 163.451 31.4265Z" fill="white"/>
</svg>
